<svg width="514" height="494" viewBox="0 0 514 494" fill="none" xmlns="http://www.w3.org/2000/svg">
<path opacity="0.07" d="M451.764 249.596C451.764 340.94 398.313 384.082 332.416 346.066C266.519 308.051 213.135 203.126 213.135 111.849C213.135 20.5056 266.585 -22.6362 332.483 15.3792C398.38 53.3945 451.764 158.253 451.764 249.596Z" fill="url(#paint0_linear_92_673)"/>
<path opacity="0.4" d="M278.3 57.5224C262.591 48.468 247.082 43.8076 232.638 43.741C218.194 43.6744 205.014 48.2682 193.898 57.2561C182.782 66.244 173.996 79.3596 168.005 95.9372C162.015 112.515 158.886 132.288 158.886 153.992L278.234 222.833L278.3 57.5224Z" fill="url(#paint1_linear_92_673)"/>
<path opacity="0.2" d="M185.511 131.09C185.511 163.779 192.5 199.797 205.613 234.55C218.726 269.303 237.364 301.26 259.13 326.36C280.896 351.459 304.925 368.569 328.089 375.56C351.253 382.55 372.487 379.088 389.194 365.573C405.902 352.058 417.217 329.156 421.877 299.795C426.47 270.368 424.14 235.749 415.087 200.33C406.035 164.911 390.792 130.224 371.156 100.731C351.52 71.2372 328.489 48.2016 304.859 34.6199V199.997L185.511 131.09Z" fill="url(#paint2_linear_92_673)"/>
<path opacity="0.3" d="M219.126 114.312L21.1006 0L21.1671 103.261L201.753 207.52L219.259 233.418L219.126 114.312Z" fill="url(#paint3_linear_92_673)"/>
<path d="M0 40.2124V12.1836L74.7503 55.3254V83.3542L0 40.2124Z" fill="#607D8B"/>
<path opacity="0.15" d="M168.205 110.051L124.806 85.0186V94.073L168.205 119.106V110.051Z" fill="white"/>
<path opacity="0.15" d="M168.271 128.227L84.6013 79.9587V89.0131L168.271 137.281V128.227Z" fill="white"/>
<path opacity="0.15" d="M168.271 146.336L66.8958 87.8814V96.9359L168.271 155.457V146.336Z" fill="white"/>
<path d="M178.921 125.697C178.921 134.219 183.98 144.006 190.17 147.601C196.361 151.196 201.42 147.201 201.42 138.679C201.42 130.158 196.361 120.371 190.17 116.776C183.914 113.181 178.921 117.175 178.921 125.697Z" fill="#607D8B"/>
<path opacity="0.3" d="M298.802 274.03L496.893 388.409L496.96 491.67L316.374 387.41L298.935 393.136L298.802 274.03Z" fill="url(#paint4_linear_92_673)"/>
<path d="M439.25 406.585V378.556L514 421.697V449.726L439.25 406.585Z" fill="#607D8B"/>
<path opacity="0.15" d="M349.789 328.623L393.188 353.656V362.71L349.789 337.678V328.623Z" fill="white"/>
<path opacity="0.15" d="M349.789 346.732L428.134 391.938V400.992L349.789 355.853V346.732Z" fill="white"/>
<path opacity="0.15" d="M349.789 364.907L451.164 423.428V432.483L349.789 373.962V364.907Z" fill="white"/>
<path d="M339.072 331.885C339.072 340.407 334.013 344.402 327.823 340.807C321.632 337.212 316.573 327.425 316.573 318.903C316.573 310.381 321.632 306.386 327.823 309.982C334.013 313.577 339.072 323.364 339.072 331.885Z" fill="#607D8B"/>
<path opacity="0.3" d="M159.485 222.899L271.044 287.279V494L159.485 429.62V222.899Z" fill="url(#paint5_linear_92_673)"/>
<path opacity="0.15" d="M170.468 345.6L260.062 397.33V406.385L170.468 354.655V345.6Z" fill="white"/>
<path opacity="0.15" d="M176.725 366.905L253.738 411.378V420.432L176.725 375.959V366.905Z" fill="white"/>
<path d="M209.274 403.855L131.661 359.049V382.151L209.274 426.957V403.855Z" fill="#EEEEEE"/>
<path d="M227.979 304.19C227.979 314.176 222.188 318.903 215.065 314.775C207.943 310.647 202.152 299.13 202.152 289.077C202.152 279.09 207.943 274.363 215.065 278.491C222.188 282.685 227.979 294.203 227.979 304.19Z" fill="#EEEEEE"/>
<path d="M215.065 322.831C203.55 316.107 194.031 322.431 192.367 336.879C192.101 339.409 193.965 342.737 196.294 344.069L233.836 366.039C236.166 367.371 238.029 366.306 237.763 363.443C236.099 346.932 226.581 329.555 215.065 322.831Z" fill="#EEEEEE"/>
<path opacity="0.2" d="M97.3818 205.989L68.8928 189.544V179.957L97.3818 196.402C99.7115 197.733 103.106 200.463 105.968 204.657C109.097 209.118 111.293 214.777 111.293 220.902C111.293 227.693 109.563 231.554 106.301 232.619C103.239 233.618 99.5784 231.887 97.3818 230.622L85.6667 223.831L85.6001 223.765C84.6017 223.166 83.0042 222.566 81.7395 222.966C80.6745 223.299 79.5429 224.297 79.5429 228.092C79.5429 231.887 80.741 234.151 81.6729 235.549C82.8711 237.28 84.4686 238.478 85.467 239.011L85.6001 239.077L121.411 259.783V269.37L85.8664 248.798C83.4036 247.533 79.8757 244.803 76.8138 240.542C73.4857 235.815 71.2225 229.89 71.2225 223.299C71.2225 216.708 73.4857 213.379 76.7473 212.447C79.8092 211.581 83.337 212.846 85.7998 214.311L97.3818 221.035C99.0459 222.034 100.311 222.433 101.176 222.167C101.842 221.967 103.04 221.035 103.04 216.175C103.04 212.979 102.041 210.915 101.043 209.584C99.8446 207.786 98.3137 206.521 97.3818 205.989Z" fill="white"/>
<path d="M74.0847 187.48C74.0847 196.069 69.0259 200.13 62.8356 196.601C56.6452 193.006 51.5864 183.153 51.5864 174.498C51.5864 165.909 56.6452 161.848 62.8356 165.377C69.0259 168.972 74.0847 178.892 74.0847 187.48Z" fill="#607D8B"/>
<path d="M135.988 272.699C135.988 281.287 130.93 285.348 124.739 281.82C118.549 278.224 113.49 268.371 113.49 259.716C113.49 251.128 118.549 247.066 124.739 250.595C130.93 254.19 135.988 264.11 135.988 272.699Z" fill="#EEEEEE"/>
<defs>
<linearGradient id="paint0_linear_92_673" x1="475.744" y1="109.614" x2="254.78" y2="219.205" gradientUnits="userSpaceOnUse">
<stop stop-color="white"/>
<stop offset="1" stop-color="white" stop-opacity="0"/>
</linearGradient>
<linearGradient id="paint1_linear_92_673" x1="329.017" y1="95.2924" x2="195.321" y2="158.235" gradientUnits="userSpaceOnUse">
<stop stop-color="white"/>
<stop offset="1" stop-color="white" stop-opacity="0"/>
</linearGradient>
<linearGradient id="paint2_linear_92_673" x1="391.328" y1="141.336" x2="293.509" y2="242.314" gradientUnits="userSpaceOnUse">
<stop stop-color="white"/>
<stop offset="1" stop-color="white" stop-opacity="0"/>
</linearGradient>
<linearGradient id="paint3_linear_92_673" x1="175.955" y1="72.9699" x2="73.6644" y2="153.044" gradientUnits="userSpaceOnUse">
<stop stop-color="white"/>
<stop offset="1" stop-color="white" stop-opacity="0"/>
</linearGradient>
<linearGradient id="paint4_linear_92_673" x1="383.909" y1="277.395" x2="409.526" y2="485.133" gradientUnits="userSpaceOnUse">
<stop stop-color="white"/>
<stop offset="1" stop-color="white" stop-opacity="0"/>
</linearGradient>
<linearGradient id="paint5_linear_92_673" x1="282.993" y1="241.119" x2="183.938" y2="412.696" gradientUnits="userSpaceOnUse">
<stop stop-color="white"/>
<stop offset="1" stop-color="white" stop-opacity="0"/>
</linearGradient>
</defs>
</svg>
