<svg xmlns="http://www.w3.org/2000/svg" width="151" height="55" viewBox="0 0 151 55" fill="none">
<path d="M41.7572 14.94H18.6913V21.1152H31.2185C33.4057 21.1152 35.593 21.5136 37.3826 22.3104C39.1722 23.1072 40.763 24.3024 42.1549 25.4976C43.5468 26.6928 44.541 28.4856 45.1375 30.4776C45.9329 32.2704 46.1317 34.4616 46.1317 36.4536C46.1317 38.6448 45.7341 40.836 45.1375 42.828C44.3422 44.82 43.3479 46.6128 42.1549 48.0072C40.9618 49.4016 39.1722 50.796 37.3826 51.5928C35.593 52.3896 33.4057 52.9872 31.2185 52.9872H0V1.39441H41.7572V14.94ZM18.6913 32.2704V40.836H21.8728C23.6624 40.836 25.0543 40.4376 25.8497 39.6408C26.6451 38.844 27.2416 37.848 27.2416 36.4536C27.2416 36.0552 27.2416 35.4576 27.0427 35.0592C26.8439 34.6608 26.6451 34.0632 26.2474 33.6648C25.8497 33.2664 25.2532 32.868 24.6566 32.6688C24.0601 32.4696 23.0659 32.2704 22.0717 32.2704H18.6913Z" fill="#3F51B5"/>
<path d="M64.4762 16.932V53.1864H45.7849V1.39441H94.1039V52.9872H75.4126V16.932H64.4762Z" fill="#3F51B5"/>
<path d="M147.991 14.7408C146.798 12.1512 145.207 9.96002 143.218 7.96802L128.504 19.5216C129.697 20.7168 130.492 22.3104 130.89 24.1032H150.377C150.178 20.7168 149.383 17.5296 147.991 14.7408Z" fill="#283593"/>
<path d="M118.164 17.928C119.357 17.3304 120.749 17.1312 122.34 17.1312C122.737 17.1312 123.135 17.1312 123.334 17.1312L128.106 0.3984C126.316 0.1992 124.328 0 122.141 0C117.965 0 113.988 0.5976 110.608 1.992L117.567 18.1272C117.766 18.1272 117.965 17.928 118.164 17.928Z" fill="#3949AB"/>
<path d="M131.288 30.876C130.89 32.6688 130.095 34.2624 128.703 35.4576C127.311 36.6528 125.123 37.4496 122.34 37.4496C119.357 37.4496 117.17 36.4536 115.38 34.6608C113.59 32.868 112.795 30.2784 112.795 27.2904C112.795 25.896 112.994 24.7008 113.392 23.5056C113.789 22.3104 114.386 21.1152 115.181 20.3184C115.778 19.5216 116.772 18.7248 117.766 18.3264L110.807 1.992C110.608 1.992 110.409 2.1912 110.21 2.1912C106.631 3.7848 103.648 5.7768 101.262 8.16721C98.8761 10.7568 96.8876 13.5456 95.6946 16.932C94.5015 20.3184 93.7061 23.7048 93.7061 27.2904C93.7061 30.876 94.3026 34.2624 95.6946 37.6488C96.8876 41.0352 98.8761 43.824 101.262 46.4136C103.648 49.0032 106.83 50.9952 110.409 52.3896C113.988 53.9832 117.965 54.5808 122.538 54.5808C126.913 54.5808 130.691 53.9832 134.071 52.5888C137.452 51.3936 140.236 49.6008 142.622 47.4096C145.008 45.2184 146.797 42.828 148.189 39.84C149.581 37.0512 150.377 33.864 150.774 30.6768H131.288V30.876Z" fill="#3F51B5"/>
<path d="M128.305 19.1232C128.504 19.3224 128.504 19.3224 128.703 19.5216L143.218 7.96804C143.019 7.76884 142.622 7.37044 142.423 7.17124C140.037 4.98004 137.253 3.18724 133.873 1.99204C132.083 1.19524 130.095 0.796838 128.106 0.398438L123.334 17.1312C125.521 17.3304 127.112 17.928 128.305 19.1232Z" fill="#303F9F"/>
</svg>
